<svg xmlns="http://www.w3.org/2000/svg" width="534.0471801757812" height="537.1488037109375" viewBox="-121.9353256225586 -128.21682739257812 534.0471801757812 537.1488037109375"><title>Neo4j Graph Visualization</title><desc>Created using Neo4j (http://www.neo4j.com/)</desc><g class="layer relationships"><g class="relationship" transform="translate(300.5545093291015 91.16596426198166) rotate(491.620881228637)"><path class="outline" fill="#A5ABB6" stroke="none" d="M 25 0.5 L 35.95059846692098 0.5 L 35.95059846692098 -0.5 L 25 -0.5 Z M 71.95059846692098 0.5 L 82.90119693384196 0.5 L 82.90119693384196 3.5 L 89.90119693384196 0 L 82.90119693384196 -3.5 L 82.90119693384196 -0.5 L 71.95059846692098 -0.5 Z"/><text text-anchor="middle" pointer-events="none" font-size="8px" fill="#000000" x="53.95059846692098" y="3" transform="rotate(180 53.95059846692098 0)" font-family="sans-serif">KNOWS</text></g><g class="relationship" transform="translate(116.89678162005373 130.5481830805618) rotate(383.42808680134044)"><path class="outline" fill="#A5ABB6" stroke="none" d="M 25 0.5 L 36.99237205298887 0.5 L 36.99237205298887 -0.5 L 25 -0.5 Z M 72.99237205298887 0.5 L 84.98474410597774 0.5 L 84.98474410597774 3.5 L 91.98474410597774 0 L 84.98474410597774 -3.5 L 84.98474410597774 -0.5 L 72.99237205298887 -0.5 Z"/><text text-anchor="middle" pointer-events="none" font-size="8px" fill="#000000" x="54.99237205298887" y="3" font-family="sans-serif">KNOWS</text></g><g class="relationship" transform="translate(227.20801758748658 4.19070147673928) rotate(409.8589674352264)"><path class="outline" fill="#A5ABB6" stroke="none" d="M 25 0.5 L 35.3867387608148 0.5 L 35.3867387608148 -0.5 L 25 -0.5 Z M 71.38673876081481 0.5 L 81.7734775216296 0.5 L 81.7734775216296 3.5 L 88.7734775216296 0 L 81.7734775216296 -3.5 L 81.7734775216296 -0.5 L 71.38673876081481 -0.5 Z"/><text text-anchor="middle" pointer-events="none" font-size="8px" fill="#000000" x="53.3867387608148" y="3" font-family="sans-serif">KNOWS</text></g><g class="relationship" transform="translate(-36.04995902096842 175.94149359899077) rotate(389.8291949654401)"><path class="outline" fill="#A5ABB6" stroke="none" d="M 25 0.5 L 35.662666279476035 0.5 L 35.662666279476035 -0.5 L 25 -0.5 Z M 71.66266627947604 0.5 L 82.32533255895207 0.5 L 82.32533255895207 3.5 L 89.32533255895207 0 L 82.32533255895207 -3.5 L 82.32533255895207 -0.5 L 71.66266627947604 -0.5 Z"/><text text-anchor="middle" pointer-events="none" font-size="8px" fill="#000000" x="53.662666279476035" y="3" font-family="sans-serif">KNOWS</text></g><g class="relationship" transform="translate(116.89678162005373 130.5481830805618) rotate(477.73518468282344)"><path class="outline" fill="#A5ABB6" stroke="none" d="M 25 0.5 L 36.2672820825584 0.5 L 36.2672820825584 -0.5 L 25 -0.5 Z M 72.26728208255841 0.5 L 83.5345641651168 0.5 L 83.5345641651168 3.5 L 90.5345641651168 0 L 83.5345641651168 -3.5 L 83.5345641651168 -0.5 L 72.26728208255841 -0.5 Z"/><text text-anchor="middle" pointer-events="none" font-size="8px" fill="#000000" x="54.2672820825584" y="3" transform="rotate(180 54.2672820825584 0)" font-family="sans-serif">KNOWS</text></g><g class="relationship" transform="translate(108.64200461173516 11.433030075968704) rotate(282.0887656814671)"><path class="outline" fill="#A5ABB6" stroke="none" d="M 25 0.5 L 35.07962492950685 0.5 L 35.07962492950685 -0.5 L 25 -0.5 Z M 71.07962492950685 0.5 L 81.1592498590137 0.5 L 81.1592498590137 3.5 L 88.1592498590137 0 L 81.1592498590137 -3.5 L 81.1592498590137 -0.5 L 71.07962492950685 -0.5 Z"/><text text-anchor="middle" pointer-events="none" font-size="8px" fill="#000000" x="53.07962492950685" y="3" font-family="sans-serif">KNOWS</text></g><g class="relationship" transform="translate(227.20801758748658 4.19070147673928) rotate(536.5045637775653)"><path class="outline" fill="#A5ABB6" stroke="none" d="M 25 0.5 L 37.89349871093904 0.5 L 37.89349871093904 -0.5 L 25 -0.5 Z M 73.89349871093904 0.5 L 86.78699742187808 0.5 L 86.78699742187808 3.5 L 93.78699742187808 0 L 86.78699742187808 -3.5 L 86.78699742187808 -0.5 L 73.89349871093904 -0.5 Z"/><text text-anchor="middle" pointer-events="none" font-size="8px" fill="#000000" x="55.89349871093904" y="3" transform="rotate(180 55.89349871093904 0)" font-family="sans-serif">KNOWS</text></g><g class="relationship" transform="translate(116.89678162005373 130.5481830805618) rotate(266.0356940887695)"><path class="outline" fill="#A5ABB6" stroke="none" d="M 25 0.5 L 38.20042089207724 0.5 L 38.20042089207724 -0.5 L 25 -0.5 Z M 74.20042089207723 0.5 L 87.40084178415448 0.5 L 87.40084178415448 3.5 L 94.40084178415448 0 L 87.40084178415448 -3.5 L 87.40084178415448 -0.5 L 74.20042089207723 -0.5 Z"/><text text-anchor="middle" pointer-events="none" font-size="8px" fill="#000000" x="56.20042089207724" y="3" transform="rotate(180 56.20042089207724 0)" font-family="sans-serif">KNOWS</text></g><g class="relationship" transform="translate(108.64200461173516 11.433030075968704) rotate(207.62449518630388)"><path class="outline" fill="#A5ABB6" stroke="none" d="M 25 0.5 L 35.45072002558442 0.5 L 35.45072002558442 -0.5 L 25 -0.5 Z M 71.45072002558442 0.5 L 81.90144005116883 0.5 L 81.90144005116883 3.5 L 88.90144005116883 0 L 81.90144005116883 -3.5 L 81.90144005116883 -0.5 L 71.45072002558442 -0.5 Z"/><text text-anchor="middle" pointer-events="none" font-size="8px" fill="#000000" x="53.45072002558442" y="3" transform="rotate(180 53.45072002558442 0)" font-family="sans-serif">KNOWS</text></g><g class="relationship" transform="translate(7.724710336895611 -41.3802046476822) rotate(200.8875130790538)"><path class="outline" fill="#A5ABB6" stroke="none" d="M 25 0.5 L 32.370252548595985 0.5 L 32.370252548595985 -0.5 L 25 -0.5 Z M 68.37025254859599 0.5 L 75.74050509719197 0.5 L 75.74050509719197 3.5 L 82.74050509719197 0 L 75.74050509719197 -3.5 L 75.74050509719197 -0.5 L 68.37025254859599 -0.5 Z"/><text text-anchor="middle" pointer-events="none" font-size="8px" fill="#000000" x="50.370252548595985" y="3" transform="rotate(180 50.370252548595985 0)" font-family="sans-serif">KNOWS</text></g><g class="relationship" transform="translate(300.5545093291015 91.16596426198166) rotate(399.16437266837005)"><path class="outline" fill="#A5ABB6" stroke="none" d="M 25 0.5 L 31.739642329162592 0.5 L 31.739642329162592 -0.5 L 25 -0.5 Z M 67.73964232916259 0.5 L 74.47928465832518 0.5 L 74.47928465832518 3.5 L 81.47928465832518 0 L 74.47928465832518 -3.5 L 74.47928465832518 -0.5 L 67.73964232916259 -0.5 Z"/><text text-anchor="middle" pointer-events="none" font-size="8px" fill="#000000" x="49.73964232916259" y="3" font-family="sans-serif">KNOWS</text></g><g class="relationship" transform="translate(63.12865128264413 232.80875063640332) rotate(513.201727547814)"><path class="outline" fill="#A5ABB6" stroke="none" d="M 25 0.5 L 33.09911315189385 0.5 L 33.09911315189385 -0.5 L 25 -0.5 Z M 69.09911315189385 0.5 L 77.1982263037877 0.5 L 77.1982263037877 3.5 L 84.1982263037877 0 L 77.1982263037877 -3.5 L 77.1982263037877 -0.5 L 69.09911315189385 -0.5 Z"/><text text-anchor="middle" pointer-events="none" font-size="8px" fill="#000000" x="51.09911315189385" y="3" transform="rotate(180 51.09911315189385 0)" font-family="sans-serif">KNOWS</text></g><g class="relationship" transform="translate(-34.34162137682163 282.0408395173622) rotate(462.2143986954127)"><path class="outline" fill="#A5ABB6" stroke="none" d="M 25 0.5 L 28.579211104120233 0.5 L 28.579211104120233 -0.5 L 25 -0.5 Z M 64.57921110412023 0.5 L 68.15842220824047 0.5 L 68.15842220824047 3.5 L 75.15842220824047 0 L 68.15842220824047 -3.5 L 68.15842220824047 -0.5 L 64.57921110412023 -0.5 Z"/><text text-anchor="middle" pointer-events="none" font-size="8px" fill="#000000" x="46.57921110412023" y="3" transform="rotate(180 46.57921110412023 0)" font-family="sans-serif">KNOWS</text></g></g><g class="layer nodes"><g class="node" transform="translate(116.89678162005373,130.5481830805618)"><circle class="outline" cx="0" cy="0" r="25" fill="#68BDF6" stroke="#5CA8DB" stroke-width="2px"/><text text-anchor="middle" pointer-events="none" font-family="sans-serif" dy="1.5625" font-size="25" fill="#FFFFFF"/><text text-anchor="middle" pointer-events="none" y="5" font-size="10px" fill="#FFFFFF" font-family="sans-serif"> beijing</text></g><g class="node" transform="translate(227.20801758748658,4.19070147673928)"><circle class="outline" cx="0" cy="0" r="25" fill="#68BDF6" stroke="#5CA8DB" stroke-width="2px"/><text text-anchor="middle" pointer-events="none" font-family="sans-serif" dy="1.5625" font-size="25" fill="#FFFFFF"/><text text-anchor="middle" pointer-events="none" y="5" font-size="10px" fill="#FFFFFF" font-family="sans-serif"> shanghai</text></g><g class="node" transform="translate(224.2372836143927,177.06105210779344)"><circle class="outline" cx="0" cy="0" r="25" fill="#68BDF6" stroke="#5CA8DB" stroke-width="2px"/><text text-anchor="middle" pointer-events="none" font-family="sans-serif" dy="1.5625" font-size="25" fill="#FFFFFF"/><text text-anchor="middle" pointer-events="none" y="5" font-size="10px" fill="#FFFFFF" font-family="sans-serif"> qingdao</text></g><g class="node" transform="translate(300.5545093291015,91.16596426198166)"><circle class="outline" cx="0" cy="0" r="25" fill="#68BDF6" stroke="#5CA8DB" stroke-width="2px"/><text text-anchor="middle" pointer-events="none" font-family="sans-serif" dy="1.5625" font-size="25" fill="#FFFFFF"/><text text-anchor="middle" pointer-events="none" y="5" font-size="10px" fill="#FFFFFF" font-family="sans-serif"> zhengz…</text></g><g class="node" transform="translate(-36.04995902096842,175.94149359899077)"><circle class="outline" cx="0" cy="0" r="25" fill="#68BDF6" stroke="#5CA8DB" stroke-width="2px"/><text text-anchor="middle" pointer-events="none" font-family="sans-serif" dy="1.5625" font-size="25" fill="#FFFFFF"/><text text-anchor="middle" pointer-events="none" y="5" font-size="10px" fill="#FFFFFF" font-family="sans-serif"> xining</text></g><g class="node" transform="translate(63.12865128264413,232.80875063640332)"><circle class="outline" cx="0" cy="0" r="25" fill="#68BDF6" stroke="#5CA8DB" stroke-width="2px"/><text text-anchor="middle" pointer-events="none" font-family="sans-serif" dy="1.5625" font-size="25" fill="#FFFFFF"/><text text-anchor="middle" pointer-events="none" y="5" font-size="10px" fill="#FFFFFF" font-family="sans-serif"> xian</text></g><g class="node" transform="translate(132.34058863579838,-99.2168363672815)"><circle class="outline" cx="0" cy="0" r="25" fill="#68BDF6" stroke="#5CA8DB" stroke-width="2px"/><text text-anchor="middle" pointer-events="none" font-family="sans-serif" dy="1.5625" font-size="25" fill="#FFFFFF"/><text text-anchor="middle" pointer-events="none" y="5" font-size="10px" fill="#FFFFFF" font-family="sans-serif"> xiamen</text></g><g class="node" transform="translate(108.64200461173516,11.433030075968704)"><circle class="outline" cx="0" cy="0" r="25" fill="#68BDF6" stroke="#5CA8DB" stroke-width="2px"/><text text-anchor="middle" pointer-events="none" font-family="sans-serif" dy="1.5625" font-size="25" fill="#FFFFFF"/><text text-anchor="middle" pointer-events="none" y="5" font-size="10px" fill="#FFFFFF" font-family="sans-serif"> guangz…</text></g><g class="node" transform="translate(7.724710336895611,-41.3802046476822)"><circle class="outline" cx="0" cy="0" r="25" fill="#68BDF6" stroke="#5CA8DB" stroke-width="2px"/><text text-anchor="middle" pointer-events="none" font-family="sans-serif" dy="1.5625" font-size="25" fill="#FFFFFF"/><text text-anchor="middle" pointer-events="none" y="5" font-size="10px" fill="#FFFFFF" font-family="sans-serif"> zhuhai</text></g><g class="node" transform="translate(-92.93532567150882,-79.79340015892251)"><circle class="outline" cx="0" cy="0" r="25" fill="#68BDF6" stroke="#5CA8DB" stroke-width="2px"/><text text-anchor="middle" pointer-events="none" font-family="sans-serif" dy="1.5625" font-size="25" fill="#FFFFFF"/><text text-anchor="middle" pointer-events="none" y="5" font-size="10px" fill="#FFFFFF" font-family="sans-serif"> guilin</text></g><g class="node" transform="translate(383.1118750532972,158.41266995103416)"><circle class="outline" cx="0" cy="0" r="25" fill="#68BDF6" stroke="#5CA8DB" stroke-width="2px"/><text text-anchor="middle" pointer-events="none" font-family="sans-serif" dy="1.5625" font-size="25" fill="#FFFFFF"/><text text-anchor="middle" pointer-events="none" y="5" font-size="10px" fill="#FFFFFF" font-family="sans-serif"> kunming</text></g><g class="node" transform="translate(-34.34162137682163,282.0408395173622)"><circle class="outline" cx="0" cy="0" r="25" fill="#68BDF6" stroke="#5CA8DB" stroke-width="2px"/><text text-anchor="middle" pointer-events="none" font-family="sans-serif" dy="1.5625" font-size="25" fill="#FFFFFF"/><text text-anchor="middle" pointer-events="none" y="5" font-size="10px" fill="#FFFFFF" font-family="sans-serif"> chengdu</text></g><g class="node" transform="translate(-55.532180722999,379.9319511355285)"><circle class="outline" cx="0" cy="0" r="25" fill="#68BDF6" stroke="#5CA8DB" stroke-width="2px"/><text text-anchor="middle" pointer-events="none" font-family="sans-serif" dy="1.5625" font-size="25" fill="#FFFFFF"/><text text-anchor="middle" pointer-events="none" y="5" font-size="10px" fill="#FFFFFF" font-family="sans-serif"> xizang</text></g></g></svg>